<?xml version="1.0" encoding="utf-8"?>
<svg id="master-artboard" viewBox="0 0 1400 980" version="1.1" xmlns="http://www.w3.org/2000/svg" x="0px" y="0px" style="enable-background:new 0 0 1400 980;" width="1400px" height="980px"><g transform="matrix(1.7286114701248256, 0, 0, 1.7286114701248256, 210.0000133253124, -0.000004441770727225958)"><g id="surface1">
<path style="stroke: rgb(255, 255, 255); fill-rule: nonzero; fill: rgb(255, 255, 255); fill-opacity: 1;" d="M 78.644531 384.222656 L 75.488281 384.222656 L 75.488281 391.253906 L 78.519531 391.253906 C 81.210938 391.253906 83.699219 390.457031 83.699219 387.632812 C 83.699219 384.769531 81.210938 384.222656 78.644531 384.222656 M 79.066406 396.984375 L 75.488281 396.984375 L 75.488281 408.222656 L 68.285156 408.222656 L 68.285156 378.414062 L 79.234375 378.414062 C 85.761719 378.414062 90.898438 380.769531 90.898438 387.59375 C 90.898438 394.496094 85.296875 396.984375 79.066406 396.984375 " transform="matrix(1.8044166142859737, 0, 0, 1.8044166142859737, -228.02225875227776, -228.02225875227776)"/>
<path style="stroke: none; fill-rule: nonzero; fill: rgb(255, 255, 255); fill-opacity: 1;" d="M 103.238281 408.226562 L 103.238281 378.414062 L 123.28125 378.414062 L 123.28125 384.519531 L 110.183594 384.519531 L 110.183594 390.117188 L 122.5625 390.117188 L 122.5625 395.886719 L 110.183594 395.886719 L 110.183594 402.078125 L 124.039062 402.078125 L 124.039062 408.226562 Z M 103.238281 408.226562 " transform="matrix(1.8044166142859737, 0, 0, 1.8044166142859737, -228.02225875227776, -228.02225875227776)"/>
<path style="stroke: none; fill-rule: nonzero; fill: rgb(255, 255, 255); fill-opacity: 1;" d="M 136.796875 378.410156 L 144.039062 378.410156 L 144.039062 408.222656 L 136.796875 408.222656 Z M 136.796875 378.410156 " transform="matrix(1.8044166142859737, 0, 0, 1.8044166142859737, -228.02225875227776, -228.02225875227776)"/>
<path style="stroke: none; fill-rule: nonzero; fill: rgb(255, 255, 255); fill-opacity: 1;" d="M 185.222656 408.226562 L 185.390625 387.128906 L 185.265625 387.128906 L 177.515625 408.226562 L 172.464844 408.226562 L 164.925781 387.128906 L 164.800781 387.128906 L 164.96875 408.226562 L 158.191406 408.226562 L 158.191406 378.414062 L 168.421875 378.414062 L 175.203125 397.53125 L 175.371094 397.53125 L 181.855469 378.414062 L 192.253906 378.414062 L 192.253906 408.226562 Z M 185.222656 408.226562 " transform="matrix(1.8044166142859737, 0, 0, 1.8044166142859737, -228.02225875227776, -228.02225875227776)"/>
<path style="stroke: none; fill-rule: nonzero; fill: rgb(255, 255, 255); fill-opacity: 1;" d="M 218.617188 386.371094 L 214.828125 396.601562 L 222.320312 396.601562 Z M 226.617188 408.226562 L 224.300781 402.371094 L 212.761719 402.371094 L 210.574219 408.226562 L 202.742188 408.226562 L 215.246094 378.414062 L 222.238281 378.414062 L 234.617188 408.226562 Z M 226.617188 408.226562 " transform="matrix(1.8044166142859737, 0, 0, 1.8044166142859737, -228.02225875227776, -228.02225875227776)"/>
<path style="stroke: none; fill-rule: nonzero; fill: rgb(255, 255, 255); fill-opacity: 1;" d="M 255.96875 384.222656 L 252.136719 384.222656 L 252.136719 391.171875 L 255.546875 391.171875 C 257.863281 391.171875 260.765625 390.582031 260.765625 387.550781 C 260.765625 384.769531 258.113281 384.222656 255.96875 384.222656 M 261.0625 408.222656 L 254.617188 396.390625 L 252.175781 396.390625 L 252.175781 408.222656 L 245.101562 408.222656 L 245.101562 378.414062 L 256.472656 378.414062 C 262.199219 378.414062 267.882812 380.601562 267.882812 387.421875 C 267.882812 391.421875 265.527344 394.289062 261.695312 395.464844 L 269.484375 408.222656 Z M 261.0625 408.222656 " transform="matrix(1.8044166142859737, 0, 0, 1.8044166142859737, -228.02225875227776, -228.02225875227776)"/>
<path style="stroke: none; fill-rule: nonzero; fill: rgb(255, 255, 255); fill-opacity: 1;" d="M 313.574219 408.226562 L 306.371094 408.226562 L 295.085938 378.414062 L 303.171875 378.414062 L 310.078125 399.550781 L 310.246094 399.550781 L 317.109375 378.414062 L 325.066406 378.414062 Z M 313.574219 408.226562 " transform="matrix(1.8044166142859737, 0, 0, 1.8044166142859737, -228.02225875227776, -228.02225875227776)"/>
<path style="stroke: none; fill-rule: nonzero; fill: rgb(255, 255, 255); fill-opacity: 1;" d="M 349.832031 384.097656 C 344.777344 384.097656 341.324219 387.972656 341.324219 393.191406 C 341.324219 398.582031 344.816406 402.457031 349.832031 402.457031 C 354.839844 402.457031 358.378906 398.582031 358.378906 393.191406 C 358.378906 387.972656 354.882812 384.097656 349.832031 384.097656 M 349.832031 409.023438 C 340.523438 409.023438 333.617188 402.625 333.617188 393.191406 C 333.617188 383.632812 340.523438 377.613281 349.832031 377.613281 C 359.179688 377.613281 366.082031 383.632812 366.082031 393.191406 C 366.082031 402.625 359.179688 409.023438 349.832031 409.023438 " transform="matrix(1.8044166142859737, 0, 0, 1.8044166142859737, -228.02225875227776, -228.02225875227776)"/>
<path style="stroke: none; fill-rule: nonzero; fill: rgb(255, 255, 255); fill-opacity: 1;" d="M 378.84375 408.226562 L 378.84375 378.414062 L 386.085938 378.414062 L 386.085938 401.949219 L 397.625 401.949219 L 397.625 408.226562 Z M 378.84375 408.226562 " transform="matrix(1.8044166142859737, 0, 0, 1.8044166142859737, -228.02225875227776, -228.02225875227776)"/>
<path style="stroke: none; fill-rule: nonzero; fill: rgb(255, 255, 255); fill-opacity: 1;" d="M 408.992188 408.226562 L 408.992188 378.414062 L 416.234375 378.414062 L 416.234375 401.949219 L 427.773438 401.949219 L 427.773438 408.226562 Z M 408.992188 408.226562 " transform="matrix(1.8044166142859737, 0, 0, 1.8044166142859737, -228.02225875227776, -228.02225875227776)"/>
<path style="stroke: none; fill-rule: nonzero; fill: rgb(255, 255, 255); fill-opacity: 1;" d="M 439.144531 408.226562 L 439.144531 378.414062 L 459.1875 378.414062 L 459.1875 384.519531 L 446.089844 384.519531 L 446.089844 390.117188 L 458.46875 390.117188 L 458.46875 395.886719 L 446.089844 395.886719 L 446.089844 402.078125 L 459.945312 402.078125 L 459.945312 408.226562 Z M 439.144531 408.226562 " transform="matrix(1.8044166142859737, 0, 0, 1.8044166142859737, -228.02225875227776, -228.02225875227776)"/>
<path style="stroke: none; fill-rule: nonzero; fill: rgb(255, 255, 255); fill-opacity: 1;" d="M 487.191406 395.59375 L 487.191406 408.222656 L 479.988281 408.222656 L 479.988281 395.59375 L 468.789062 378.414062 L 477.503906 378.414062 L 483.863281 389.445312 L 490.222656 378.414062 L 498.640625 378.414062 Z M 487.191406 395.59375 " transform="matrix(1.8044166142859737, 0, 0, 1.8044166142859737, -228.02225875227776, -228.02225875227776)"/>
<path style="stroke: none; fill-rule: nonzero; fill: rgb(255, 255, 255); fill-opacity: 1;" d="M 212.660156 318.742188 L 203.644531 334.351562 L 213.417969 334.351562 C 222.152344 334.351562 230.226562 329.691406 234.59375 322.128906 L 240.882812 311.234375 C 231.503906 315.179688 221.976562 317.671875 212.660156 318.742188 " transform="matrix(1.8044166142859737, 0, 0, 1.8044166142859737, -228.02225875227776, -228.02225875227776)"/>
<path style="stroke: none; fill-rule: nonzero; fill: rgb(255, 255, 255); fill-opacity: 1;" d="M 329.410156 157.902344 L 319.636719 157.902344 C 310.898438 157.902344 302.828125 162.566406 298.460938 170.128906 L 234.679688 280.597656 C 247.421875 275.816406 259.984375 268.382812 271.492188 258.21875 Z M 329.410156 157.902344 " transform="matrix(1.8044166142859737, 0, 0, 1.8044166142859737, -228.02225875227782, -226.80681569410214)"/>
<path style="stroke: none; fill-rule: nonzero; fill: rgb(255, 255, 255); fill-opacity: 1;" d="M 386.59375 157.902344 C 377.855469 157.902344 369.785156 162.566406 365.417969 170.128906 L 270.601562 334.355469 L 280.375 334.355469 C 289.109375 334.355469 297.183594 329.695312 301.550781 322.128906 L 396.363281 157.902344 Z M 386.59375 157.902344 " transform="matrix(1.8044166142859737, 0, 0, 1.8044166142859737, -228.02225875227776, -228.02225875227776)"/>
<path style="stroke: none; fill-rule: nonzero; fill: rgb(255, 255, 255); fill-opacity: 1;" d="M 453.550781 157.902344 C 444.8125 157.902344 436.742188 162.566406 432.375 170.128906 L 337.558594 334.355469 L 347.332031 334.355469 C 356.066406 334.355469 364.140625 329.695312 368.507812 322.128906 L 463.320312 157.902344 Z M 453.550781 157.902344 " transform="matrix(1.8044166142859737, 0, 0, 1.8044166142859737, -228.02225875227776, -228.02225875227776)"/>
<path style=" stroke:none;fill-rule:nonzero;fill:rgb(92.939758%,10.978699%,14.118958%);fill-opacity:1;" d="M 285.359375 243.960938 C 280.964844 249.199219 276.324219 253.949219 271.492188 258.21875 C 259.988281 268.386719 247.421875 275.816406 234.679688 280.597656 C 218.957031 286.496094 202.957031 288.363281 188.347656 286.339844 C 185.410156 285.933594 182.527344 285.375 179.710938 284.652344 C 178.921875 290.207031 178.746094 296.046875 179.273438 302.058594 C 179.699219 306.90625 180.578125 311.867188 181.960938 316.882812 C 191.5625 319.335938 201.972656 319.972656 212.660156 318.742188 C 221.976562 317.667969 231.503906 315.179688 240.882812 311.234375 C 253.425781 305.964844 265.707031 298.097656 276.871094 287.550781 C 283.386719 273.929688 286.242188 258.890625 285.359375 243.960938 " transform="matrix(1.8044166142859737, 0, 0, 1.8044166142859737, -228.02225875227776, -228.02225875227776)"/>
<path style=" stroke:none;fill-rule:nonzero;fill:rgb(92.939758%,10.978699%,14.118958%);fill-opacity:1;" d="M 145.863281 202.496094 C 124.824219 224.035156 114.554688 260.433594 123.8125 299.378906 C 116.644531 288.933594 111.613281 276.785156 109.449219 263.453125 C 105.679688 240.207031 111.324219 217.613281 123.574219 199.546875 C 123.617188 199.546875 123.65625 199.550781 123.699219 199.550781 C 123.648438 199.550781 123.597656 199.542969 123.546875 199.542969 C 130.148438 189.785156 138.53125 181.621094 148.0625 175.328125 C 173.875 179.855469 195.324219 191.175781 210.882812 205.933594 C 216.375 211.144531 221.136719 216.78125 225.089844 222.703125 C 230.152344 230.273438 233.898438 238.304688 236.191406 246.488281 C 245.59375 242.710938 254.792969 236.726562 262.976562 228.425781 C 259.425781 215.773438 252.394531 203.480469 242.414062 192.695312 C 237.765625 187.671875 232.476562 182.972656 226.597656 178.714844 C 216.179688 171.171875 203.914062 165.015625 190.097656 160.890625 C 202.726562 159.90625 215.765625 161.613281 228.390625 166.410156 C 229.882812 166.976562 231.347656 167.582031 232.789062 168.222656 C 238.628906 170.824219 244.042969 174.011719 249.042969 177.648438 L 249.085938 177.582031 C 244.152344 173.617188 238.871094 170.246094 233.351562 167.46875 C 202.785156 152.09375 164.753906 155.027344 136.527344 178.054688 C 98.230469 209.300781 92.515625 265.675781 123.757812 303.96875 C 129.648438 311.1875 136.429688 317.230469 143.816406 322.09375 C 148.90625 325.445312 154.28125 328.230469 159.847656 330.445312 C 163.851562 332.039062 167.953125 333.34375 172.121094 334.34375 C 168.121094 333.175781 164.222656 331.738281 160.453125 330.039062 C 159.40625 329.5625 158.363281 329.074219 157.335938 328.558594 C 154.867188 321.792969 153.011719 315.058594 151.714844 308.414062 C 144.5 271.417969 154.777344 237.242188 174.898438 216.660156 C 166.925781 210.402344 157.144531 205.425781 145.863281 202.496094 " transform="matrix(1.8044166142859737, 0, 0, 1.8044166142859737, -228.02225875227776, -228.02225875227776)"/>
<path d="M 10.42089557647705 236.98646545410156" style="fill: rgb(0, 47, 109); fill-opacity: 1; stroke: rgb(255, 255, 255); stroke-opacity: 1; stroke-width: 1; paint-order: stroke;"/></g></g></svg>